<?xml version="1.0" encoding="UTF-8" standalone="no"?>
<svg
   xmlns:dc="http://purl.org/dc/elements/1.1/"
   xmlns:cc="http://creativecommons.org/ns#"
   xmlns:rdf="http://www.w3.org/1999/02/22-rdf-syntax-ns#"
   xmlns:svg="http://www.w3.org/2000/svg"
   xmlns="http://www.w3.org/2000/svg"
   xmlns:sodipodi="http://sodipodi.sourceforge.net/DTD/sodipodi-0.dtd"
   xmlns:inkscape="http://www.inkscape.org/namespaces/inkscape"
   width="865.73834"
   height="561.9281"
   version="1.1"
   id="svg7040"
   sodipodi:docname="doosMp3_BigFix_v2.0.svg"
   inkscape:version="0.92.3 (2405546, 2018-03-11)">
  <metadata
     id="metadata7044">
    <rdf:RDF>
      <cc:Work
         rdf:about="">
        <dc:format>image/svg+xml</dc:format>
        <dc:type
           rdf:resource="http://purl.org/dc/dcmitype/StillImage" />
        <dc:title></dc:title>
      </cc:Work>
    </rdf:RDF>
  </metadata>
  <sodipodi:namedview
     pagecolor="#ffffff"
     bordercolor="#666666"
     borderopacity="1"
     objecttolerance="10"
     gridtolerance="10"
     guidetolerance="10"
     inkscape:pageopacity="0"
     inkscape:pageshadow="2"
     inkscape:window-width="1366"
     inkscape:window-height="715"
     id="namedview7042"
     showgrid="false"
     fit-margin-top="0"
     fit-margin-left="0"
     fit-margin-right="0"
     fit-margin-bottom="0"
     inkscape:zoom="0.70987835"
     inkscape:cx="489.99706"
     inkscape:cy="299.85946"
     inkscape:window-x="0"
     inkscape:window-y="0"
     inkscape:window-maximized="1"
     inkscape:current-layer="g7038"
     inkscape:document-units="mm"
     units="px"
     showguides="true" />
  <desc
     id="desc7010">/home/mcristinaciocci/doosMp3_BigFix_4.dxf - scale = 1.000000, origin = (0.000000, 0.000000), method = manual</desc>
  <defs
     id="defs7022" />
  <g
     inkscape:groupmode="layer"
     inkscape:label="OpenJsCad"
     id="g7036"
     transform="translate(359.75569,-1033.5326)">
    <rect
       style="opacity:1;fill:none;fill-opacity:1;stroke:#000000;stroke-width:0.73193705;stroke-miterlimit:4;stroke-dasharray:none;stroke-dashoffset:0;stroke-opacity:1"
       id="rect5210"
       width="95.678375"
       height="14.748886"
       x="298.11481"
       y="1114.4586"
       ry="1.0927156" />
  </g>
  <g
     inkscape:groupmode="layer"
     inkscape:label="0"
     id="g7038"
     transform="translate(359.75569,-1033.5326)">
    <rect
       style="fill:none;fill-opacity:1;stroke:#ff0000;stroke-width:1;stroke-miterlimit:4;stroke-dasharray:none;stroke-opacity:1"
       id="rect5326"
       width="157.75073"
       height="189.91122"
       x="1165.2535"
       y="145.81119"
       ry="0"
       transform="rotate(90)" />
    <rect
       transform="rotate(90)"
       ry="0"
       y="233.37312"
       x="1328.2903"
       height="112.75064"
       width="112.75064"
       id="rect5328"
       style="fill:none;fill-opacity:1;stroke:#ff0000;stroke-width:1;stroke-miterlimit:4;stroke-dasharray:none;stroke-opacity:1" />
    <rect
       style="fill:none;fill-opacity:1;stroke:#ff0000;stroke-width:1;stroke-miterlimit:4;stroke-dasharray:none;stroke-opacity:1"
       id="rect5330"
       width="161.87514"
       height="112.74128"
       x="-231.83774"
       y="1328.6925" />
    <rect
       style="fill:none;fill-opacity:1;stroke:#030000;stroke-width:1;stroke-miterlimit:4;stroke-dasharray:none;stroke-opacity:1"
       id="rect5978"
       width="22.458448"
       height="14.899394"
       x="-12.33964"
       y="1303.847" />
    <g
       id="g6011"
       transform="translate(21.930747,-4.6480494)"
       style="fill:none;stroke:#000000;stroke-width:1;stroke-miterlimit:4;stroke-dasharray:none;stroke-opacity:1">
      <circle
         r="1.7100067"
         cy="1242.8632"
         cx="-239.25441"
         id="path6005"
         style="fill:none;fill-opacity:1;stroke:#000000;stroke-width:1;stroke-miterlimit:4;stroke-dasharray:none;stroke-opacity:1" />
      <circle
         style="fill:none;fill-opacity:1;stroke:#000000;stroke-width:1;stroke-miterlimit:4;stroke-dasharray:none;stroke-opacity:1"
         id="circle6007"
         cx="-220.35512"
         cy="1242.8632"
         r="1.7100067" />
    </g>
    <circle
       style="fill:none;fill-opacity:1;stroke:#000000;stroke-width:1;stroke-miterlimit:4;stroke-dasharray:none;stroke-opacity:1"
       id="path6013"
       cx="-103.1104"
       cy="1091.0601"
       r="16.538528" />
    <rect
       transform="scale(-1)"
       y="-1402.6659"
       x="-143.22099"
       height="66.570419"
       width="36.334202"
       id="rect6017"
       style="fill:none;fill-opacity:1;stroke:#000000;stroke-width:1.46107388;stroke-miterlimit:4;stroke-dasharray:none;stroke-opacity:1" />
    <rect
       style="fill:none;fill-opacity:1;stroke:#000000;stroke-width:1;stroke-miterlimit:4;stroke-dasharray:none;stroke-opacity:1"
       id="rect6015"
       width="44.179409"
       height="44.179405"
       x="1362.3137"
       y="-50.707184"
       transform="rotate(90)" />
    <g
       id="g4624"
       transform="translate(42,-2)"
       style="stroke-width:1;stroke-miterlimit:4;stroke-dasharray:none">
      <rect
         transform="rotate(90)"
         y="-463.48267"
         x="1072.126"
         height="207.36787"
         width="37.289139"
         id="rect7699"
         style="fill:none;fill-opacity:1;stroke:#000000;stroke-width:1;stroke-miterlimit:4;stroke-dasharray:none;stroke-opacity:1" />
      <circle
         r="5.5765715"
         cy="1086.7705"
         cx="269.37299"
         id="path7701"
         style="fill:none;fill-opacity:1;stroke:#000000;stroke-width:1;stroke-miterlimit:4;stroke-dasharray:none;stroke-opacity:1" />
      <circle
         style="fill:none;fill-opacity:1;stroke:#000000;stroke-width:1;stroke-miterlimit:4;stroke-dasharray:none;stroke-opacity:1"
         id="circle7703"
         cx="435.67261"
         cy="1086.7705"
         r="5.5765715" />
      <circle
         r="5.5765715"
         cy="1086.7705"
         cx="394.09778"
         id="circle7705"
         style="fill:none;fill-opacity:1;stroke:#000000;stroke-width:1;stroke-miterlimit:4;stroke-dasharray:none;stroke-opacity:1" />
      <circle
         style="fill:none;fill-opacity:1;stroke:#000000;stroke-width:1;stroke-miterlimit:4;stroke-dasharray:none;stroke-opacity:1"
         id="circle7707"
         cx="352.52298"
         cy="1086.7705"
         r="5.5765715" />
      <circle
         r="5.5765715"
         cy="1086.7705"
         cx="307.16867"
         id="circle7709"
         style="fill:none;fill-opacity:1;stroke:#000000;stroke-width:1;stroke-miterlimit:4;stroke-dasharray:none;stroke-opacity:1" />
    </g>
    <rect
       y="1479.7795"
       x="-344.89917"
       height="74.896217"
       width="282.77023"
       id="rect2669"
       style="fill:none;fill-opacity:1;stroke:#ff0000;stroke-width:1;stroke-miterlimit:4;stroke-dasharray:none;stroke-opacity:1" />
    <rect
       style="fill:none;fill-opacity:1;stroke:#000000;stroke-width:1;stroke-miterlimit:4;stroke-dasharray:none;stroke-opacity:1"
       id="rect5980"
       width="14.755654"
       height="10.976127"
       x="1303.9191"
       y="60.051308"
       transform="rotate(90)" />
    <path
       inkscape:connector-curvature="0"
       d="m -359.25569,1066.1838 v 33.3606 h 11.33858 v 21.4174 h 23.75224 v 11.3385 h 36.30026 v -11.3385 h 35.09081 v 11.3385 h 36.30026 v -11.3385 h 35.09082 v 11.3385 h 36.30026 v -11.3385 h 35.09081 v 11.3385 h 36.300256 v -11.3385 h 24.35696 v -20.8126 h 11.33858 v -33.3607 h -11.33858 v -21.4173 h -23.75223 v -11.3386 h -36.300256 v 11.3386 h -35.09081 v -11.3386 H -180.778 v 11.3386 h -35.09081 v -11.3386 h -36.30026 v 11.3386 h -35.09082 v -11.3386 h -36.30026 v 11.3386 h -24.35696 v 20.8126 z"
       style="fill:none;stroke:#000000;stroke-width:1;stroke-miterlimit:4;stroke-dasharray:none"
       id="path2693" />
    <path
       inkscape:connector-curvature="0"
       d="m -20.942574,1102.4252 v 21.4174 h 23.75223 v 11.3385 h 36.30027 v -11.3385 h 35.09081 v 11.3385 H 110.501 v -11.3385 h 35.09082 v 11.3385 h 36.30026 v -11.3385 h 35.09081 v 11.3385 h 36.30026 v -11.3385 H 277.6401 V 1103.03 h 11.33859 v -33.3607 H 277.6401 v -21.4173 h -23.75223 v -11.3386 h -36.30025 v 11.3386 H 182.4968 v -11.3386 h -36.30026 v 11.3386 h -35.09081 v -11.3386 H 74.805456 v 11.3386 h -35.09081 v -11.3386 H 3.414386 v 11.3386 h -24.35696 v 20.8126 h -11.33858 v 33.3606 z"
       style="fill:none;stroke:#000000;stroke-width:1;stroke-miterlimit:4;stroke-dasharray:none"
       id="path2701" />
    <rect
       y="70.068939"
       x="1154.7559"
       height="71.328926"
       width="143.13995"
       id="rect3302"
       style="fill:none;fill-opacity:1;stroke:#ff0000;stroke-width:1;stroke-miterlimit:4;stroke-dasharray:none;stroke-opacity:1"
       transform="rotate(90)" />
    <rect
       transform="scale(-1)"
       y="-1563.37"
       x="-145.25281"
       height="21.882717"
       width="40.780354"
       id="rect3304"
       style="fill:none;fill-opacity:1;stroke:#000000;stroke-width:1;stroke-miterlimit:4;stroke-dasharray:none;stroke-opacity:1" />
    <rect
       style="fill:none;fill-opacity:1;stroke:#000000;stroke-width:1;stroke-miterlimit:4;stroke-dasharray:none;stroke-opacity:1"
       id="rect3306"
       width="40.780354"
       height="21.882717"
       x="-39.252808"
       y="-1277.37"
       transform="scale(-1)" />
    <rect
       transform="scale(-1)"
       y="-1573.8267"
       x="-35.435883"
       height="14.531949"
       width="33.429588"
       id="rect3308"
       style="fill:none;fill-opacity:1;stroke:#000000;stroke-width:1;stroke-miterlimit:4;stroke-dasharray:none;stroke-opacity:1" />
    <path
       inkscape:connector-curvature="0"
       d="m -359.25459,1560.0727 v 34.8879 h 36.30026 v -11.3386 h 35.09082 v 11.3386 h 36.30026 v -11.3386 h 35.09081 v 11.3386 h 36.30027 v -11.3386 h 35.09081 v 11.3386 h 36.30026 v -11.3386 h 35.090814 v 11.3386 h 35.69554 v -35.4927 h -11.33858 v -34.2832 h 11.33858 v -35.4927 h -11.33858 v -34.2832 h 11.33858 v -35.4927 h -11.33858 v -34.2832 h 11.33858 v -35.4926 h -11.33858 v -34.2833 h 11.33858 v -35.4926 h -11.33858 v -34.2833 h 11.33858 v -35.4926 h -11.33858 v -34.2833 h 11.33858 v -34.8879 h -36.30026 v 11.3386 h -35.090814 v -11.3386 h -36.30026 v 11.3386 h -35.09082 v -11.3386 h -36.30026 v 11.3386 h -35.09081 v -11.3386 h -36.30027 v 11.3386 h -35.09081 v -11.3386 h -35.69554 v 35.4927 h 11.33858 v 34.2832 h -11.33858 v 35.4927 h 11.33858 v 34.2832 h -11.33858 v 35.4927 h 11.33858 v 34.2832 h -11.33858 v 35.4926 h 11.33858 v 34.2833 h -11.33858 v 35.4926 h 11.33858 v 34.2833 h -11.33858 v 35.4926 h 11.33858 v 34.2833 z"
       style="fill:none;stroke:#000000"
       id="path870" />
    <path
       inkscape:connector-curvature="0"
       d="m 1.401575,1141.4174 h -21.41733 v 34.2832 h -11.33858 v 35.4927 h 11.33858 v 34.2832 h -11.33858 v 35.4927 h 11.33858 v 34.2832 h -11.33858 v 35.4927 h 11.33858 v 34.2832 h -11.33858 v 35.4927 h 11.33858 v 34.2832 h -11.33858 v 35.4927 h 11.33858 v 34.2832 h -11.33858 v 35.4927 h 11.33858 v 34.8879 h 22.02205 v -11.3386 h 32.15118 v 11.3386 h 21.41732 v -34.2832 h 11.33859 v -35.4927 h -11.33859 v -34.2832 h 11.33859 v -35.4927 h -11.33859 v -34.2832 h 11.33859 v -35.4927 h -11.33859 v -34.2832 h 11.33859 v -35.4927 h -11.33859 v -34.2832 h 11.33859 v -35.4927 h -11.33859 v -34.2832 h 11.33859 v -35.4927 h -11.33859 v -34.8879 h -22.02204 v 11.3386 H 1.401575 Z"
       style="fill:none;stroke:#000000"
       id="path874" />
    <path
       inkscape:connector-curvature="0"
       d="M 107.88976,1141.4173 H 86.472444 v 34.2832 h -11.33859 v 35.4927 h 11.33859 v 34.2832 h -11.33859 v 35.4927 h 11.33859 v 34.2832 h -11.33859 v 35.4927 h 11.33859 v 34.2832 h -11.33859 v 35.4927 h 11.33859 v 34.2832 h -11.33859 v 35.4927 h 11.33859 v 34.2832 h -11.33859 v 35.4927 h 11.33859 v 34.8879 h 22.022046 v -11.3386 h 32.15118 v 11.3386 h 21.41732 v -34.2832 h 11.33858 v -35.4927 h -11.33858 v -34.2832 h 11.33858 v -35.4927 h -11.33858 v -34.2832 h 11.33858 v -35.4927 h -11.33858 v -34.2832 h 11.33858 v -35.4927 h -11.33858 v -34.2832 h 11.33858 v -35.4927 h -11.33858 v -34.2832 h 11.33858 v -35.4927 h -11.33858 v -34.8879 h -22.02205 v 11.3386 h -32.15118 z"
       style="fill:none;stroke:#000000"
       id="path876" />
    <g
       id="g1509"
       style="stroke:#0000ff;stroke-opacity:1">
      <rect
         style="fill:none;fill-opacity:1;stroke:#0000ff;stroke-width:1;stroke-miterlimit:4;stroke-dasharray:none;stroke-opacity:1"
         id="rect3296"
         width="14.755654"
         height="10.976127"
         x="1303.9191"
         y="201.45813"
         transform="matrix(0,1,1,0,0,0)" />
      <path
         id="path878"
         style="fill:none;stroke:#0000ff;stroke-opacity:1"
         d="m 215.70183,1141.4173 h -35.69554 v 35.4927 h 11.33858 v 34.2832 h -11.33858 v 35.4927 h 11.33858 v 34.2832 h -11.33858 v 35.4927 h 11.33858 v 34.2832 h -11.33858 v 35.4926 h 11.33858 v 34.2833 h -11.33858 v 35.4926 h 11.33858 v 34.2833 h -11.33858 v 35.4926 h 11.33858 v 34.2833 h -11.33858 v 34.8879 h 36.30026 v -11.3386 h 35.09082 v 11.3386 h 36.30026 v -11.3386 h 35.09081 v 11.3386 h 36.30027 v -11.3386 h 35.09081 v 11.3386 h 36.30026 v -11.3386 h 35.09081 v 11.3386 h 35.69554 v -35.4927 h -11.33858 v -34.2832 h 11.33858 v -35.4927 h -11.33858 v -34.2832 h 11.33858 v -35.4927 h -11.33858 v -34.2832 h 11.33858 v -35.4926 h -11.33858 v -34.2833 h 11.33858 v -35.4926 h -11.33858 v -34.2833 h 11.33858 v -35.4926 h -11.33858 v -34.2833 h 11.33858 v -34.8879 h -36.30026 v 11.3386 h -35.09081 v -11.3386 h -36.30027 v 11.3386 h -35.09081 v -11.3386 h -36.30026 v 11.3386 H 287.0929 v -11.3386 h -36.30026 v 11.3386 h -35.09081 z"
         inkscape:connector-curvature="0" />
    </g>
    <rect
       style="fill:none;fill-opacity:1;stroke:#000000;stroke-width:1;stroke-miterlimit:4;stroke-dasharray:none;stroke-opacity:1"
       id="rect1505"
       width="40.780354"
       height="21.882717"
       x="223.98715"
       y="-1109.0231"
       transform="scale(-1)" />
  </g>
</svg>
