<?xml version="1.0" encoding="UTF-8" standalone="no"?>
<!-- Created with Inkscape (http://www.inkscape.org/) -->

<svg
   xmlns:dc="http://purl.org/dc/elements/1.1/"
   xmlns:cc="http://creativecommons.org/ns#"
   xmlns:rdf="http://www.w3.org/1999/02/22-rdf-syntax-ns#"
   xmlns:svg="http://www.w3.org/2000/svg"
   xmlns="http://www.w3.org/2000/svg"
   xmlns:sodipodi="http://sodipodi.sourceforge.net/DTD/sodipodi-0.dtd"
   xmlns:inkscape="http://www.inkscape.org/namespaces/inkscape"
   id="svg5547"
   version="1.1"
   inkscape:version="0.92.3 (2405546, 2018-03-11)"
   width="34.110455"
   height="64"
   xml:space="preserve"
   sodipodi:docname="logo_ingegno.svg"
   inkscape:export-filename="/media/benny/hd2/datahd2/git/TijlPlay/img/logo_website_ingegno_backup.svg.png"
   inkscape:export-xdpi="150"
   inkscape:export-ydpi="150"><metadata
     id="metadata5553"><rdf:RDF><cc:Work
         rdf:about=""><dc:format>image/svg+xml</dc:format><dc:type
           rdf:resource="http://purl.org/dc/dcmitype/StillImage" /><dc:title></dc:title></cc:Work></rdf:RDF></metadata><defs
     id="defs5551" /><sodipodi:namedview
     pagecolor="#ffffff"
     bordercolor="#666666"
     borderopacity="1"
     objecttolerance="10"
     gridtolerance="10"
     guidetolerance="10"
     inkscape:pageopacity="0"
     inkscape:pageshadow="2"
     inkscape:window-width="1062"
     inkscape:window-height="548"
     id="namedview5549"
     showgrid="false"
     inkscape:zoom="1.1927865"
     inkscape:cx="38.606181"
     inkscape:cy="55.443751"
     inkscape:window-x="286"
     inkscape:window-y="203"
     inkscape:window-maximized="0"
     inkscape:current-layer="g5555"
     fit-margin-top="0"
     fit-margin-left="0"
     fit-margin-right="0"
     fit-margin-bottom="0" /><g
     id="g5555"
     inkscape:groupmode="layer"
     inkscape:label="ink_ext_XXXXXX"
     transform="matrix(1.25,0,0,-1.25,2.3807644e-4,64)"><g
       id="g1547"
       transform="matrix(0.57713327,0,0,0.57713327,-8.0539686e-5,0)"><path
         d="m 14.668,80.2121 c 1.1207,0 2.0761,-0.7164 2.4367,-1.7168 -0.1805,0.1707 -0.4199,0.2766 -0.6902,0.2766 -0.554,0 -1.0059,-0.452 -1.0059,-1.0082 0,-0.5547 0.4519,-1.0035 1.0059,-1.0035 0.3296,0 0.6191,0.1582 0.7996,0.4031 -0.2121,-1.2145 -1.2723,-2.1348 -2.5461,-2.1348 -1.4344,0 -2.591,1.1606 -2.591,2.5906 0,1.4332 1.1566,2.593 2.591,2.593 z m 5.5211,-3.3223 v 3.1352 h 0.1586 c 0.8675,0 1.5726,-0.7035 1.5726,-1.5707 v -6.5934 c -0.0515,-0.0039 -0.1043,-0.0078 -0.1605,-0.0078 -0.8438,0 -1.527,0.6657 -1.5645,1.5 h -0.0062 z m 7.4957,3.3223 c 1.1203,0 2.073,-0.7164 2.4363,-1.7168 -0.1832,0.1707 -0.4254,0.2766 -0.6918,0.2766 -0.5563,0 -1.0047,-0.452 -1.0047,-1.0082 0,-0.5547 0.4484,-1.0035 1.0047,-1.0035 0.3285,0 0.618,0.1582 0.8012,0.4031 -0.216,-1.2145 -1.2692,-2.1348 -2.5457,-2.1348 -1.4375,0 -2.5946,1.1606 -2.5946,2.5906 0,1.4332 1.1571,2.593 2.5946,2.593 z M 46.6633,25.9934 c 0.1035,0.3261 0.0379,0.7441 -0.3078,1.1425 -1.7926,2.0704 -3.9145,3.0743 -6.3203,3.0692 1.0277,0.3105 2.0664,0.4504 3.1839,0.0703 0.5762,-0.1934 0.9211,0.4414 0.5399,0.8781 -0.8684,1.0028 -3.0719,1.8594 -3.7965,1.9844 -0.0738,0.0137 -0.1477,0.0262 -0.2242,0.0418 0.0066,0.1035 0.016,0.207 0.0211,0.3105 h 0.0429 v 4.3118 c 0.1418,0.032 0.2715,0.0761 0.3891,0.1433 1.0383,-0.7703 2.7434,-0.8515 2.5785,0.4504 -0.7648,6.0676 -0.8707,13.0598 -3.7383,18.6781 -0.7496,0.5524 -1.8164,0.825 -2.7968,0.825 -1.6434,0 -3.0438,-1.3539 -3.1711,-3.007 V 34.3301 c 0.0039,-0.0828 0.0105,-0.2957 0,-0.4539 v -0.0196 l -0.0051,-0.7628 h -0.0891 c -0.8664,-5.6532 -5.6941,-9.836 -11.4972,-9.836 -6.1953,0 -11.3012,4.8418 -11.62621,11.0168 v 20.8371 c 0.18711,3.443 3.04691,6.1403 6.51171,6.1403 3.5598,0 6.4563,-2.977 6.4563,-6.6375 V 32.2941 l -0.6903,-0.0703 c -0.0746,-0.0078 -0.155,-0.0117 -0.2347,-0.0117 -0.993,0 -2.0024,0.6192 -2.3368,1.5008 v 4.3625 h -0.007 v 17.0117 c -0.1644,1.6152 -1.5496,2.8703 -3.1875,2.8703 -1.7656,0 -3.2039,-1.4355 -3.2039,-3.2039 0,-0.0469 -0.0156,-19.6148 -0.0156,-20.4117 0.2863,-4.3848 3.9441,-7.8152 8.334,-7.8152 4.289,0 7.9332,3.3406 8.3222,7.6132 l 0.02,20.3149 v 0.2875 l 0.0031,0.7769 h 0.0445 c 0.3805,3.1774 3.0922,5.6493 6.3727,5.6493 0.3472,0 0.6925,-0.0305 1.0242,-0.0844 -0.677,1.1539 -1.4762,2.2265 -2.3828,3.1992 1.3312,2.3102 2.0949,4.9828 2.0949,7.8395 0,5.5773 -2.9031,10.4746 -7.2813,13.2683 1.1981,0.3981 2.4008,0.6422 3.6969,0.1824 0.5738,-0.2023 0.9285,0.4297 0.5567,0.8731 -0.8571,1.0148 -3.0508,1.8969 -3.7723,2.0351 -2.6512,0.6391 -5.6023,-0.1941 -8.2379,-0.6418 -0.2328,0.0129 -0.4648,0.0196 -0.6977,0.0196 -0.1902,0 -0.3765,-0.0067 -0.5675,-0.0137 -2.6297,0.4457 -5.5711,1.2738 -8.2149,0.6359 C 11.7258,88.3434 9.53359,87.4613 8.68164,86.4465 8.30664,86.0031 8.66445,85.3711 9.23711,85.5734 10.4949,86.0199 11.6688,85.8031 12.8297,85.425 8.42773,82.6348 5.49648,77.7238 5.49648,72.1227 c 0,-2.9446 0.81758,-5.7028 2.22461,-8.0598 C 5.74102,62.1133 3.96055,59.4883 3.4418,58.3637 0.417969,52.5297 0.586328,45.2207 0.00585938,38.8887 -0.114453,37.5813 1.58789,37.7227 2.60117,38.5246 2.79297,38.423 3.02969,38.3672 3.28867,38.3801 V 35.425 c -0.025,-0.4102 -0.04258,-0.8242 -0.04258,-1.2422 0,-9.4199 7.14061,-17.1758 16.29921,-18.1555 v -3.989 h -8.639 V 8.79492 h 20.5218 v 3.24338 h -8.6383 v 3.9297 c 3.7301,0.2586 7.1481,1.6367 9.9305,3.8015 3.7652,-2.5117 8.8594,-2.8797 13.2055,-3.7097 0.8965,-0.1739 0.9664,1.039 0.5023,1.8035 0.1953,0.2824 0.2551,0.7004 0.0391,1.1847 -0.9774,2.2032 -2.4438,3.6903 -4.3578,4.4883 1.5699,0.1914 3.1176,0.4266 4.5976,0.586 0.9106,0.0996 0.6211,1.2734 -0.0437,1.8711"
         style="fill:#070707;fill-opacity:1;fill-rule:nonzero;stroke:none"
         id="path5573"
         inkscape:connector-curvature="0" /><path
         d="M 15.1117,4.39766 H 27.2226 V 7.63868 H 15.1117 Z"
         style="fill:#070707;fill-opacity:1;fill-rule:nonzero;stroke:none"
         id="path5575"
         inkscape:connector-curvature="0" /><path
         d="m 19.0613,0 h 4.20977 V 3.24336 H 19.0613 Z"
         style="fill:#070707;fill-opacity:1;fill-rule:nonzero;stroke:none"
         id="path5577"
         inkscape:connector-curvature="0" /></g></g></svg>